# xmcd CD database file
#
# Track frame offsets:
#	150
#	34920
#	55867
#	85170
#	105616
#	127982
#	152126
#	177646
#	203738
#	225708
#	245516
#	263531
#
# Disc length: 3756 seconds
#
# Revision: 2
# Processed by: cddbd v1.5.2PL0 Copyright (c) Steve Scherf et al.
# Submitted via: CDex 1.70beta2
#
DISCID=9b0eaa0c
DTITLE=WITHIN TEMPTATION - BLACK SYMPHONY [Disc 1]
DYEAR=2008
DGENRE=Symphonic Metal
TTITLE0=Ouverture
TTITLE1=Jillian (I'd Give My Heart)
TTITLE2=The Howling
TTITLE3=Stand My Ground
TTITLE4=The Cross
TTITLE5=What Have You Done (Featuring Keith Caputo)
TTITLE6=Hand Of Sorrow
TTITLE7=The Heart Of Everything
TTITLE8=Forgiven
TTITLE9=Somewhere (Featuring Anneke Van Giersbergen)
TTITLE10=The Swan Song
TTITLE11=Memories
EXTD=YEAR: 2008
EXTT0=
EXTT1=
EXTT2=
EXTT3=
EXTT4=
EXTT5=
EXTT6=
EXTT7=
EXTT8=
EXTT9=
EXTT10=
EXTT11=
PLAYORDER=
